<svg xmlns="http://www.w3.org/2000/svg" height="40px" viewBox="0 -960 960 960" width="40px" fill="#000000"><path d="M211-120q-22.33 0-40.33-13.5t-24-35.5L39.33-557.67q-4.33-15.66 5.5-29Q54.67-600 71.33-600h198l182-267.33q5-6.67 12-10.67t15.67-4q8.67 0 15.67 4t12 10.67L688-600h201.33q16.67 0 26.5 13.33 9.84 13.34 5.5 29L813.33-169q-6 22-24 35.5T749-120H211Zm-.33-66.67h538.66L846-533.33H114.67l96 346.66Zm316.5-126.16q19.5-19.5 19.5-47.17t-19.5-47.17q-19.5-19.5-47.17-19.5t-47.17 19.5q-19.5 19.5-19.5 47.17t19.5 47.17q19.5 19.5 47.17 19.5t47.17-19.5ZM350.33-600h257L479-789.33 350.33-600Zm130.34 240Z"/></svg>