<?xml version="1.0" encoding="UTF-8"?>
<svg xmlns="http://www.w3.org/2000/svg" xmlns:xlink="http://www.w3.org/1999/xlink" width="3001" height="3000" viewBox="0 0 3001 3000">
<defs>
<clipPath id="clip-0">
<path clip-rule="nonzero" d="M 0 0 L 3000.269531 0 L 3000.269531 3000 L 0 3000 Z M 0 0 "/>
</clipPath>
<clipPath id="clip-1">
<path clip-rule="evenodd" d="M 1204.601562 0 C 1869.878906 0 2409.210938 539.261719 2409.210938 1204.601562 C 2409.210938 1489.019531 2310.628906 1750.421875 2145.800781 1956.480469 L 3000.070312 2810.742188 L 2810.738281 3000 L 1956.550781 2145.734375 C 1750.421875 2310.632812 1489.019531 2409.210938 1204.601562 2409.210938 C 539.328125 2409.210938 0 1869.878906 0 1204.601562 C 0 539.261719 539.328125 0 1204.601562 0 Z M 1204.601562 267.691406 C 687.160156 267.691406 267.691406 687.160156 267.691406 1204.601562 C 267.691406 1722.050781 687.160156 2141.519531 1204.601562 2141.519531 C 1722.050781 2141.519531 2141.519531 1722.050781 2141.519531 1204.601562 C 2141.519531 687.160156 1722.050781 267.691406 1204.601562 267.691406 Z M 1204.601562 267.691406 "/>
</clipPath>
</defs>
<g clip-path="url(#clip-0)">
<g clip-path="url(#clip-1)">
<rect x="-300.1" y="-300" width="3601.2" height="3600" fill="rgb(0%, 0%, 0%)" fill-opacity="1"/>
</g>
</g>
</svg>
